<svg xmlns="http://www.w3.org/2000/svg" xmlns:xlink="http://www.w3.org/1999/xlink" zoomAndPan="magnify" viewBox="558 332 357 100" preserveAspectRatio="xMidYMid meet" version="1.0"><defs><g/></defs><g fill="#403427" fill-opacity="1"><g transform="translate(565.65576, 421.69664)"><g><path d="M 56.40625 -58.015625 L 56.40625 -75.484375 L 74.84375 -75.484375 L 74.84375 -58.015625 C 74.84375 -49.316406 72.6875 -42.128906 68.375 -36.453125 C 64.0625 -30.773438 57.953125 -27.109375 50.046875 -25.453125 L 50.046875 0 L 31.484375 0 L 31.484375 -25.453125 C 23.578125 -27.109375 17.410156 -30.773438 12.984375 -36.453125 C 8.566406 -42.128906 6.359375 -49.316406 6.359375 -58.015625 L 6.359375 -75.484375 L 24.90625 -75.484375 L 24.90625 -58.015625 C 24.90625 -52.335938 26.269531 -47.96875 29 -44.90625 C 31.738281 -41.851562 35.625 -40.328125 40.65625 -40.328125 C 45.757812 -40.328125 49.660156 -41.851562 52.359375 -44.90625 C 55.054688 -47.96875 56.40625 -52.335938 56.40625 -58.015625 Z M 56.40625 -58.015625 "/></g></g></g><g fill="#403427" fill-opacity="1"><g transform="translate(637.158568, 421.69664)"><g><path d="M 35.046875 1.296875 C 29.222656 1.296875 23.957031 0.00390625 19.25 -2.578125 C 14.539062 -5.171875 10.816406 -8.769531 8.078125 -13.375 C 5.347656 -17.976562 3.984375 -23.296875 3.984375 -29.328125 C 3.984375 -35.515625 5.421875 -40.976562 8.296875 -45.71875 C 11.179688 -50.46875 15.140625 -54.191406 20.171875 -56.890625 C 25.203125 -59.585938 30.953125 -60.9375 37.421875 -60.9375 C 43.890625 -60.9375 49.640625 -59.566406 54.671875 -56.828125 C 59.703125 -54.097656 63.640625 -50.320312 66.484375 -45.5 C 69.328125 -40.6875 70.75 -35.082031 70.75 -28.6875 L 70.75 0 L 54.46875 0 L 54.140625 -6.140625 C 51.765625 -3.703125 48.921875 -1.851562 45.609375 -0.59375 C 42.304688 0.664062 38.785156 1.296875 35.046875 1.296875 Z M 37.421875 -13.90625 C 41.878906 -13.90625 45.546875 -15.34375 48.421875 -18.21875 C 51.296875 -21.101562 52.734375 -24.914062 52.734375 -29.65625 C 52.734375 -34.46875 51.273438 -38.332031 48.359375 -41.25 C 45.453125 -44.164062 41.769531 -45.625 37.3125 -45.625 C 32.851562 -45.625 29.1875 -44.164062 26.3125 -41.25 C 23.4375 -38.332031 22 -34.503906 22 -29.765625 C 22 -24.953125 23.453125 -21.101562 26.359375 -18.21875 C 29.273438 -15.34375 32.960938 -13.90625 37.421875 -13.90625 Z M 37.421875 -13.90625 "/></g></g></g><g fill="#403427" fill-opacity="1"><g transform="translate(713.838271, 421.69664)"><g><path d="M 23.71875 0 L 5.9375 0 L 5.9375 -30.296875 C 5.9375 -36.410156 7.242188 -41.769531 9.859375 -46.375 C 12.484375 -50.976562 16.003906 -54.554688 20.421875 -57.109375 C 24.847656 -59.660156 29.757812 -60.9375 35.15625 -60.9375 C 39.613281 -60.9375 43.53125 -60.304688 46.90625 -59.046875 C 50.289062 -57.785156 53.3125 -56.003906 55.96875 -53.703125 L 47.34375 -41.515625 C 46.40625 -42.523438 45.035156 -43.476562 43.234375 -44.375 C 41.441406 -45.269531 39.320312 -45.71875 36.875 -45.71875 C 32.5625 -45.71875 29.289062 -44.351562 27.0625 -41.625 C 24.832031 -38.894531 23.71875 -35.265625 23.71875 -30.734375 Z M 23.71875 0 "/></g></g></g><g fill="#403427" fill-opacity="1"><g transform="translate(770.134754, 421.69664)"><g><path d="M 23.71875 -31.375 L 23.71875 0 L 5.9375 0 L 5.9375 -29.875 C 5.9375 -35.84375 7.210938 -41.160156 9.765625 -45.828125 C 12.316406 -50.503906 15.851562 -54.191406 20.375 -56.890625 C 24.90625 -59.585938 30.191406 -60.9375 36.234375 -60.9375 C 42.054688 -60.9375 47.269531 -59.625 51.875 -57 C 56.476562 -54.375 60.085938 -50.738281 62.703125 -46.09375 C 65.328125 -41.457031 66.640625 -36.050781 66.640625 -29.875 L 66.640625 0 L 48.859375 0 L 48.859375 -31.375 C 48.859375 -35.40625 47.707031 -38.710938 45.40625 -41.296875 C 43.101562 -43.890625 40.046875 -45.1875 36.234375 -45.1875 C 32.566406 -45.1875 29.5625 -43.890625 27.21875 -41.296875 C 24.882812 -38.710938 23.71875 -35.40625 23.71875 -31.375 Z M 23.71875 -31.375 "/></g></g></g><g fill="#403427" fill-opacity="1"><g transform="translate(842.722156, 421.69664)"><g/></g></g><g fill="#403427" fill-opacity="1"><g transform="translate(842.722156, 421.69664)"><g/></g></g><g fill="#403427" fill-opacity="1"><g transform="translate(874.32762, 421.69664)"><g/></g></g><g fill="#403427" fill-opacity="1"><g transform="translate(842.86866, 423.340076)"><g><path d="M 65.65625 -29.046875 C 65.65625 -27.972656 65.617188 -27.039062 65.546875 -26.25 C 65.484375 -25.457031 65.34375 -24.554688 65.125 -23.546875 L 18.796875 -23.546875 C 19.660156 -19.941406 21.566406 -17.078125 24.515625 -14.953125 C 27.460938 -12.828125 31.0625 -11.765625 35.3125 -11.765625 C 38.269531 -11.765625 40.753906 -12.210938 42.765625 -13.109375 C 44.785156 -14.015625 46.691406 -15.550781 48.484375 -17.71875 L 64.15625 -17.71875 C 62.851562 -13.613281 60.707031 -10.140625 57.71875 -7.296875 C 54.738281 -4.453125 51.320312 -2.289062 47.46875 -0.8125 C 43.613281 0.664062 39.671875 1.40625 35.640625 1.40625 C 31.109375 1.40625 26.878906 0.613281 22.953125 -0.96875 C 19.023438 -2.550781 15.582031 -4.765625 12.625 -7.609375 C 9.675781 -10.453125 7.375 -13.742188 5.71875 -17.484375 C 4.0625 -21.234375 3.234375 -25.304688 3.234375 -29.703125 C 3.234375 -34.085938 4.039062 -38.1875 5.65625 -42 C 7.28125 -45.820312 9.53125 -49.171875 12.40625 -52.046875 C 15.289062 -54.929688 18.640625 -57.179688 22.453125 -58.796875 C 26.273438 -60.421875 30.382812 -61.234375 34.78125 -61.234375 C 40.75 -61.234375 46.054688 -59.847656 50.703125 -57.078125 C 55.347656 -54.304688 59 -50.488281 61.65625 -45.625 C 64.320312 -40.769531 65.65625 -35.242188 65.65625 -29.046875 Z M 51.515625 -36.1875 C 50.578125 -40 48.703125 -42.929688 45.890625 -44.984375 C 43.085938 -47.035156 39.453125 -48.0625 34.984375 -48.0625 C 30.742188 -48.0625 27.203125 -47.035156 24.359375 -44.984375 C 21.515625 -42.929688 19.515625 -40 18.359375 -36.1875 Z M 54.75 -78.1875 L 30.234375 -65.234375 L 24.734375 -73.65625 L 48.921875 -88.125 Z M 54.75 -78.1875 "/></g></g></g></svg>